<svg width="77" height="38" viewBox="0 0 77 38" fill="none" xmlns="http://www.w3.org/2000/svg">
<rect width="77" height="38" rx="10" fill="#6C879B"/>
<rect width="38" height="38" rx="10" fill="#E8EAED"/>
<path d="M27 25.75H26.25V10.75C26.25 10.5511 26.171 10.3603 26.0303 10.2197C25.8897 10.079 25.6989 10 25.5 10H20.25C20.0511 10 19.8603 10.079 19.7197 10.2197C19.579 10.3603 19.5 10.5511 19.5 10.75V14.5H15C14.8011 14.5 14.6103 14.579 14.4697 14.7197C14.329 14.8603 14.25 15.0511 14.25 15.25V19H10.5C10.3011 19 10.1103 19.079 9.96967 19.2197C9.82902 19.3603 9.75 19.5511 9.75 19.75V25.75H9C8.80109 25.75 8.61032 25.829 8.46967 25.9697C8.32902 26.1103 8.25 26.3011 8.25 26.5C8.25 26.6989 8.32902 26.8897 8.46967 27.0303C8.61032 27.171 8.80109 27.25 9 27.25H27C27.1989 27.25 27.3897 27.171 27.5303 27.0303C27.671 26.8897 27.75 26.6989 27.75 26.5C27.75 26.3011 27.671 26.1103 27.5303 25.9697C27.3897 25.829 27.1989 25.75 27 25.75ZM21 11.5H24.75V25.75H21V11.5ZM15.75 16H19.5V25.75H15.75V16ZM11.25 20.5H14.25V25.75H11.25V20.5Z" fill="#436680"/>
<path d="M62.5002 22.0001C61.9999 21.9999 61.5047 22.1001 61.0438 22.2948C60.5829 22.4895 60.1658 22.7747 59.8171 23.1335L55.4952 20.3557C55.8352 19.4839 55.8352 18.5162 55.4952 17.6444L59.8171 14.8666C60.4663 15.5316 61.3392 15.9319 62.2668 15.9898C63.1943 16.0477 64.1103 15.7592 64.8371 15.1801C65.564 14.601 66.0499 13.7727 66.2007 12.8557C66.3516 11.9387 66.1565 10.9983 65.6534 10.217C65.1503 9.43562 64.375 8.86889 63.4778 8.62668C62.5806 8.38447 61.6254 8.48403 60.7975 8.90606C59.9695 9.32809 59.3277 10.0425 58.9966 10.9108C58.6655 11.7792 58.6685 12.7395 59.0052 13.6057L54.6834 16.3835C54.1629 15.8492 53.495 15.4822 52.7649 15.3295C52.0348 15.1768 51.2758 15.2453 50.5848 15.5262C49.8938 15.8071 49.3023 16.2876 48.8859 16.9064C48.4695 17.5253 48.2471 18.2542 48.2471 19.0001C48.2471 19.746 48.4695 20.4749 48.8859 21.0937C49.3023 21.7125 49.8938 22.1931 50.5848 22.474C51.2758 22.7549 52.0348 22.8233 52.7649 22.6706C53.495 22.5179 54.1629 22.1509 54.6834 21.6166L59.0052 24.3944C58.7157 25.1412 58.6729 25.961 58.883 26.7339C59.0931 27.5067 59.5451 28.192 60.1729 28.6894C60.8006 29.1867 61.5712 29.47 62.3716 29.4978C63.172 29.5256 63.9603 29.2964 64.621 28.8437C65.2818 28.3911 65.7802 27.7388 66.0434 26.9823C66.3066 26.2259 66.3206 25.4051 66.0836 24.64C65.8465 23.875 65.3707 23.206 64.7259 22.731C64.0811 22.2559 63.3011 21.9998 62.5002 22.0001ZM62.5002 10.0001C62.9452 10.0001 63.3802 10.132 63.7503 10.3793C64.1203 10.6265 64.4087 10.9779 64.579 11.389C64.7493 11.8002 64.7938 12.2526 64.707 12.689C64.6202 13.1255 64.4059 13.5264 64.0912 13.8411C63.7765 14.1557 63.3756 14.37 62.9392 14.4568C62.5027 14.5437 62.0503 14.4991 61.6392 14.3288C61.2281 14.1585 60.8767 13.8701 60.6294 13.5001C60.3822 13.1301 60.2502 12.6951 60.2502 12.2501C60.2502 11.6533 60.4873 11.081 60.9092 10.6591C61.3312 10.2371 61.9035 10.0001 62.5002 10.0001ZM52.0002 21.2501C51.5552 21.2501 51.1202 21.1181 50.7502 20.8709C50.3802 20.6236 50.0918 20.2722 49.9215 19.8611C49.7512 19.45 49.7066 18.9976 49.7935 18.5611C49.8803 18.1247 50.0946 17.7238 50.4092 17.4091C50.7239 17.0944 51.1248 16.8801 51.5613 16.7933C51.9977 16.7065 52.4501 16.751 52.8613 16.9213C53.2724 17.0916 53.6238 17.38 53.871 17.75C54.1183 18.1201 54.2502 18.5551 54.2502 19.0001C54.2502 19.5968 54.0132 20.1691 53.5912 20.5911C53.1693 21.013 52.597 21.2501 52.0002 21.2501ZM62.5002 28.0001C62.0552 28.0001 61.6202 27.8681 61.2502 27.6209C60.8802 27.3736 60.5918 27.0222 60.4215 26.6111C60.2512 26.2 60.2066 25.7476 60.2935 25.3111C60.3803 24.8747 60.5946 24.4738 60.9092 24.1591C61.2239 23.8444 61.6248 23.6301 62.0613 23.5433C62.4977 23.4565 62.9501 23.501 63.3613 23.6713C63.7724 23.8416 64.1238 24.13 64.371 24.5C64.6183 24.8701 64.7502 25.3051 64.7502 25.7501C64.7502 26.3468 64.5132 26.9191 64.0912 27.3411C63.6693 27.763 63.097 28.0001 62.5002 28.0001Z" fill="#C4CDD4"/>
</svg>
